<?xml version="1.0" encoding="UTF-8" standalone="no"?>
<svg xmlns:dc="http://purl.org/dc/elements/1.1/" xmlns:cc="http://creativecommons.org/ns#"
    xmlns:rdf="http://www.w3.org/1999/02/22-rdf-syntax-ns#" xmlns="http://www.w3.org/2000/svg"
    xmlns:sodipodi="http://sodipodi.sourceforge.net/DTD/sodipodi-0.dtd"
    xmlns:inkscape="http://www.inkscape.org/namespaces/inkscape" version="1.1" id="svg885"
    xml:space="preserve" width="2346.6665" height="1070.5297" viewBox="0 0 2346.6665 1070.5297"
    sodipodi:docname="database.svg" inkscape:version="1.0.2 (e86c870879, 2021-01-15, custom)"><metadata
   id="metadata891"><rdf:RDF><cc:Work
       rdf:about=""><dc:format>image/svg+xml</dc:format><dc:type
    rdf:resource="http://purl.org/dc/dcmitype/StillImage" /><dc:title /></cc:Work></rdf:RDF></metadata>
    <defs id="defs889">
            
            
            
            
            </defs>
    <sodipodi:namedview pagecolor="#ffffff" bordercolor="#666666" borderopacity="1"
        objecttolerance="10" gridtolerance="10" guidetolerance="10" inkscape:pageopacity="0"
        inkscape:pageshadow="2" inkscape:window-width="1920" inkscape:window-height="1011"
        id="namedview887" showgrid="false" fit-margin-top="0" fit-margin-left="0"
        fit-margin-right="0" fit-margin-bottom="0" inkscape:zoom="0.4796434" inkscape:cx="1287.9421"
        inkscape:cy="545.81031" inkscape:window-x="0" inkscape:window-y="0"
        inkscape:window-maximized="1" inkscape:current-layer="g931"
        inkscape:document-rotation="0" />
    <g id="g893" inkscape:groupmode="layer" inkscape:label="Untitled"
        transform="matrix(1.3333333,0,0,-1.3333333,-106.66666,1255.2648)"><g
     id="g895"
     transform="matrix(1,0,0,-1,0,1080)"><g
       id="g897"
       transform="matrix(1.6623131,0,0,1.6623131,30.130606,88.681985)"><g
         id="g901"><g
           id="g903" /><g id="g905"><g
   id="g907"><g
     id="g909"><g
       id="g911"
       transform="matrix(1.5,0,0,1.5,-60,30)" /></g><g id="g913"><g
       id="g915"
       transform="matrix(1.5,0,0,1.5,-60,30)"><path
         d="M 242.16016,75.5 H 264 c 4.41828,0 8,-3.581722 8,-8 v -13 c 0,-4.418278 3.58172,-8 8,-8 h 24"
         style="fill:none;stroke:#d4d4d4;stroke-width:1;stroke-linecap:butt;stroke-linejoin:miter;stroke-miterlimit:4;stroke-dasharray:none;stroke-opacity:1"
         id="path917" /></g></g></g>
        <g id="g919"><g
   id="g921"><g
     id="g923"
     transform="matrix(1.5,0,0,1.5,-60,30)" /></g>
            <g id="g925"><g
     id="g927"
     transform="matrix(1.5,0,0,1.5,-60,30)"><path
       d="m 529.33203,46.5 h 3.33399 C 534.50732,46.5 536,47.992676 536,49.833984 V 69.5 c 0,3.313708 2.68629,6 6,6 h 6"
       style="fill:none;stroke:#d4d4d4;stroke-width:1;stroke-linecap:butt;stroke-linejoin:miter;stroke-miterlimit:4;stroke-dasharray:none;stroke-opacity:1"
       id="path929" /></g></g></g></g><g id="g931"><g
   id="g933"><g
     id="g935"><g
       id="g937"><g
         id="g939"
         transform="matrix(1.5,0,0,1.5,30,30)"><path
           d="m 0,0 h 182.16016 c 0,0 0,0 0,0 v 32 c 0,0 0,0 0,0 H 0 c 0,0 0,0 0,0 V 0 c 0,0 0,0 0,0 z"
           style="fill:#306996;fill-opacity:1;fill-rule:nonzero;stroke:none"
           id="path941" /></g></g><g id="g943"><g
         id="g945"><text
           transform="translate(49.5,60.825)"
           style="font-variant:normal;font-weight:bold;font-size:19.5px;font-family:'Helvetica Neue';-inkscape-font-specification:Helvetica-Bold;writing-mode:lr-tb;fill:#ffffff;fill-opacity:1;fill-rule:nonzero;stroke:none"
           id="text949"><tspan
             x="0 11.9145 17.335501 28.1775 34.671001 46.585499 54.171001"
             y="0"
             sodipodi:role="line"
             id="tspan947">history</tspan></text></g></g><g id="g951" /></g><g id="g953"><g
   id="g955"><g
     id="g957"
     transform="matrix(1.5,0,0,1.5,30,78)"><path
       d="m 0,0 h 182.16016 c 0,0 0,0 0,0 v 29 c 0,0 0,0 0,0 H 0 c 0,0 0,0 0,0 V 0 c 0,0 0,0 0,0 z"
       style="fill:#f5f5f5;fill-opacity:1;fill-rule:nonzero;stroke:none"
       id="path959" /></g></g>
        <g id="g961"><g
     id="g963"><text
       transform="translate(49.5,106.05)"
       style="font-variant:normal;font-weight:normal;font-size:18px;font-family:'Helvetica Neue';-inkscape-font-specification:Helvetica;writing-mode:lr-tb;fill:#000000;fill-opacity:1;fill-rule:nonzero;stroke:none"
       id="text967"><tspan
         x="0 10.008 14.004 23.004 28.007999 38.015999 44.009998 53.009998 58.014"
         y="0"
         sodipodi:role="line"
         id="tspan965">historyId</tspan></text></g></g>
        <g id="g969"><g
     id="g971"><text
       transform="translate(225.22852,106.05)"
       style="font-variant:normal;font-weight:normal;font-size:18px;font-family:'Helvetica Neue';-inkscape-font-specification:Helvetica;writing-mode:lr-tb;fill:#999999;fill-opacity:1;fill-rule:nonzero;stroke:none"
       id="text975"><tspan
         x="0 3.9960001 14.004 19.007999 29.016001 39.023998 49.032001"
         y="0"
         sodipodi:role="line"
         id="tspan973">integer</tspan></text></g></g>
        <g id="g977" /></g><g id="g979"><g
   id="g981"><g
     id="g983"
     transform="matrix(1.5,0,0,1.5,30,121.5)"><path
       d="m 0,0 h 182.16016 c 0,0 0,0 0,0 v 29 c 0,0 0,0 0,0 H 0 c 0,0 0,0 0,0 V 0 c 0,0 0,0 0,0 z"
       style="fill:#f5f5f5;fill-opacity:1;fill-rule:nonzero;stroke:none"
       id="path985" /></g></g>
        <g id="g987"><g
     id="g989"><text
       transform="translate(49.5,149.55)"
       style="font-variant:normal;font-weight:normal;font-size:18px;font-family:'Helvetica Neue';-inkscape-font-specification:Helvetica;writing-mode:lr-tb;fill:#6f6f6f;fill-opacity:1;fill-rule:nonzero;stroke:none"
       id="text993"><tspan
         x="0 10.008 14.004 18 21.996 27"
         y="0"
         sodipodi:role="line"
         id="tspan991">pillId</tspan></text></g></g>
        <g id="g995"><g
     id="g997"><text
       transform="translate(230.20312,149.55)"
       style="font-variant:normal;font-weight:normal;font-size:18px;font-family:'Helvetica Neue';-inkscape-font-specification:Helvetica;writing-mode:lr-tb;fill:#999999;fill-opacity:1;fill-rule:nonzero;stroke:none"
       id="text1001"><tspan
         x="0 3.9960001 14.004 19.007999 29.016001 39.023998 49.032001"
         y="0"
         sodipodi:role="line"
         id="tspan999">integer</tspan></text></g></g>
        <g id="g1003" /></g><g id="g1005"><g
   id="g1007"><g
     id="g1009"
     transform="matrix(1.5,0,0,1.5,30,165)"><path
       d="m 0,0 h 182.16016 c 0,0 0,0 0,0 v 29 c 0,0 0,0 0,0 H 0 c 0,0 0,0 0,0 V 0 c 0,0 0,0 0,0 z"
       style="fill:#f5f5f5;fill-opacity:1;fill-rule:nonzero;stroke:none"
       id="path1011" /></g></g>
        <g id="g1013"><g
     id="g1015"><text
       transform="translate(49.5,193.05)"
       style="font-variant:normal;font-weight:normal;font-size:18px;font-family:'Helvetica Neue';-inkscape-font-specification:Helvetica;writing-mode:lr-tb;fill:#6f6f6f;fill-opacity:1;fill-rule:nonzero;stroke:none"
       id="text1019"><tspan
         x="0 5.994 16.002001 30.996 34.992001 45 55.007999 65.015999"
         y="0"
         sodipodi:role="line"
         id="tspan1017">reminded</tspan></text></g></g>
        <g id="g1021"><g
     id="g1023"><text
       transform="translate(230.20312,193.05)"
       style="font-variant:normal;font-weight:normal;font-size:18px;font-family:'Helvetica Neue';-inkscape-font-specification:Helvetica;writing-mode:lr-tb;fill:#999999;fill-opacity:1;fill-rule:nonzero;stroke:none"
       id="text1027"><tspan
         x="0 3.9960001 14.004 19.007999 29.016001 39.023998 49.032001"
         y="0"
         sodipodi:role="line"
         id="tspan1025">integer</tspan></text></g></g>
        <g id="g1029" /></g><g id="g1031"><g
   id="g1033"><g
     id="g1035"
     transform="matrix(1.5,0,0,1.5,30,208.5)"><path
       d="m 0,0 h 182.16016 c 0,0 0,0 0,0 v 29 c 0,0 0,0 0,0 H 0 c 0,0 0,0 0,0 V 0 c 0,0 0,0 0,0 z"
       style="fill:#f5f5f5;fill-opacity:1;fill-rule:nonzero;stroke:none"
       id="path1037" /></g></g>
        <g id="g1039"><g
     id="g1041"><text
       transform="translate(49.5,236.55)"
       style="font-variant:normal;font-weight:normal;font-size:18px;font-family:'Helvetica Neue';-inkscape-font-specification:Helvetica;writing-mode:lr-tb;fill:#6f6f6f;fill-opacity:1;fill-rule:nonzero;stroke:none"
       id="text1045"><tspan
         x="0 9 19.007999 29.016001 34.02 38.015999 44.009998 59.004002 69.012001"
         y="0"
         sodipodi:role="line"
         id="tspan1043">confirmed</tspan></text></g></g>
        <g id="g1047"><g
     id="g1049"><text
       transform="translate(230.20312,236.55)"
       style="font-variant:normal;font-weight:normal;font-size:18px;font-family:'Helvetica Neue';-inkscape-font-specification:Helvetica;writing-mode:lr-tb;fill:#999999;fill-opacity:1;fill-rule:nonzero;stroke:none"
       id="text1053"><tspan
         x="0 3.9960001 14.004 19.007999 29.016001 39.023998 49.032001"
         y="0"
         sodipodi:role="line"
         id="tspan1051">integer</tspan></text></g></g>
        <g id="g1055" /></g><g id="g1057"><g
   id="g1059"><g
     id="g1061"
     transform="matrix(1.5,0,0,1.5,30,252)"><path
       d="m 0,0 h 182.16016 c 0,0 0,0 0,0 v 29 c 0,0 0,0 0,0 H 0 c 0,0 0,0 0,0 V 0 c 0,0 0,0 0,0 z"
       style="fill:#f5f5f5;fill-opacity:1;fill-rule:nonzero;stroke:none"
       id="path1063" /></g></g>
        <g id="g1065"><g
     id="g1067"><text
       transform="translate(49.5,280.05)"
       style="font-variant:normal;font-weight:normal;font-size:18px;font-family:'Helvetica Neue';-inkscape-font-specification:Helvetica;writing-mode:lr-tb;fill:#6f6f6f;fill-opacity:1;fill-rule:nonzero;stroke:none"
       id="text1071"><tspan
         x="0 10.008 25.002001 35.009998 45.018002 55.026001"
         y="0"
         sodipodi:role="line"
         id="tspan1069">amount</tspan></text></g></g>
        <g id="g1073"><g
     id="g1075"><text
       transform="translate(256.22754,280.05)"
       style="font-variant:normal;font-weight:normal;font-size:18px;font-family:'Helvetica Neue';-inkscape-font-specification:Helvetica;writing-mode:lr-tb;fill:#999999;fill-opacity:1;fill-rule:nonzero;stroke:none"
       id="text1079"><tspan
         x="0 5.0040002 15.012 24.011999"
         y="0"
         sodipodi:role="line"
         id="tspan1077">text</tspan></text></g></g>
        <g id="g1081" /></g></g>
        <g id="g1083"><g
   id="g1085"><g
     id="g1087"><g
       id="g1089"
       transform="matrix(1.5,0,0,1.5,396,30)"><path
         d="m 0,0 h 225.33203 c 0,0 0,0 0,0 v 32 c 0,0 0,0 0,0 H 0 c 0,0 0,0 0,0 V 0 c 0,0 0,0 0,0 z"
         style="fill:#306996;fill-opacity:1;fill-rule:nonzero;stroke:none"
         id="path1091" /></g></g><g id="g1093"><g
       id="g1095"><text
         transform="translate(415.5,60.825)"
         style="font-variant:normal;font-weight:bold;font-size:19.5px;font-family:'Helvetica Neue';-inkscape-font-specification:Helvetica-Bold;writing-mode:lr-tb;fill:#ffffff;fill-opacity:1;fill-rule:nonzero;stroke:none"
         id="text1099"><tspan
           x="0 11.9145 17.335501 22.7565"
           y="0"
           sodipodi:role="line"
           id="tspan1097">pill</tspan></text></g></g><g id="g1101" /></g>
            <g id="g1103"><g
   id="g1105"><g
     id="g1107"
     transform="matrix(1.5,0,0,1.5,396,78)"><path
       d="m 0,0 h 225.33203 c 0,0 0,0 0,0 v 29 c 0,0 0,0 0,0 H 0 c 0,0 0,0 0,0 V 0 c 0,0 0,0 0,0 z"
       style="fill:#f5f5f5;fill-opacity:1;fill-rule:nonzero;stroke:none"
       id="path1109" /></g></g>
                <g id="g1111"><g
     id="g1113"><text
       transform="translate(415.5,106.05)"
       style="font-variant:normal;font-weight:normal;font-size:18px;font-family:'Helvetica Neue';-inkscape-font-specification:Helvetica;writing-mode:lr-tb;fill:#000000;fill-opacity:1;fill-rule:nonzero;stroke:none"
       id="text1117"><tspan
         x="0 3.9960001"
         y="0"
         sodipodi:role="line"
         id="tspan1115">id</tspan></text></g></g>
                <g id="g1119"><g
     id="g1121"><text
       transform="translate(655.98633,106.05)"
       style="font-variant:normal;font-weight:normal;font-size:18px;font-family:'Helvetica Neue';-inkscape-font-specification:Helvetica;writing-mode:lr-tb;fill:#999999;fill-opacity:1;fill-rule:nonzero;stroke:none"
       id="text1125"><tspan
         x="0 3.9960001 14.004 19.007999 29.016001 39.023998 49.032001"
         y="0"
         sodipodi:role="line"
         id="tspan1123">integer</tspan></text></g></g>
                <g id="g1127" /></g>
            <g id="g1129"><g
   id="g1131"><g
     id="g1133"
     transform="matrix(1.5,0,0,1.5,396,121.5)"><path
       d="m 0,0 h 225.33203 c 0,0 0,0 0,0 v 29 c 0,0 0,0 0,0 H 0 c 0,0 0,0 0,0 V 0 c 0,0 0,0 0,0 z"
       style="fill:#f5f5f5;fill-opacity:1;fill-rule:nonzero;stroke:none"
       id="path1135" /></g></g>
                <g id="g1137"><g
     id="g1139"><text
       transform="translate(415.5,149.55)"
       style="font-variant:normal;font-weight:normal;font-size:18px;font-family:'Helvetica Neue';-inkscape-font-specification:Helvetica;writing-mode:lr-tb;fill:#6f6f6f;fill-opacity:1;fill-rule:nonzero;stroke:none"
       id="text1143"><tspan
         x="0 10.008 20.016001 35.009998"
         y="0"
         sodipodi:role="line"
         id="tspan1141">name</tspan></text></g></g>
                <g id="g1145"><g
     id="g1147"><text
       transform="translate(686.98535,149.55)"
       style="font-variant:normal;font-weight:normal;font-size:18px;font-family:'Helvetica Neue';-inkscape-font-specification:Helvetica;writing-mode:lr-tb;fill:#999999;fill-opacity:1;fill-rule:nonzero;stroke:none"
       id="text1151"><tspan
         x="0 5.0040002 15.012 24.011999"
         y="0"
         sodipodi:role="line"
         id="tspan1149">text</tspan></text></g></g>
                <g id="g1153" /></g>
            <g id="g1155"><g
   id="g1157"><g
     id="g1159"
     transform="matrix(1.5,0,0,1.5,396,165)"><path
       d="m 0,0 h 225.33203 c 0,0 0,0 0,0 v 29 c 0,0 0,0 0,0 H 0 c 0,0 0,0 0,0 V 0 c 0,0 0,0 0,0 z"
       style="fill:#f5f5f5;fill-opacity:1;fill-rule:nonzero;stroke:none"
       id="path1161" /></g></g>
                <g id="g1163"><g
     id="g1165"><text
       transform="translate(415.5,193.05)"
       style="font-variant:normal;font-weight:normal;font-size:18px;font-family:'Helvetica Neue';-inkscape-font-specification:Helvetica;writing-mode:lr-tb;fill:#6f6f6f;fill-opacity:1;fill-rule:nonzero;stroke:none"
       id="text1169"><tspan
         x="0 10.008 20.016001 29.016001 38.015999 44.009998 48.006001 58.014 63.018002 67.014 77.022003"
         y="0"
         sodipodi:role="line"
         id="tspan1167">description</tspan></text></g></g>
                <g id="g1171"><g
     id="g1173"><text
       transform="translate(686.98535,193.05)"
       style="font-variant:normal;font-weight:normal;font-size:18px;font-family:'Helvetica Neue';-inkscape-font-specification:Helvetica;writing-mode:lr-tb;fill:#999999;fill-opacity:1;fill-rule:nonzero;stroke:none"
       id="text1177"><tspan
         x="0 5.0040002 15.012 24.011999"
         y="0"
         sodipodi:role="line"
         id="tspan1175">text</tspan></text></g></g>
                <g id="g1179" /></g>
            <g id="g1181"><g
   id="g1183"><g
     id="g1185"
     transform="matrix(1.5,0,0,1.5,396,208.5)"><path
       d="m 0,0 h 225.33203 c 0,0 0,0 0,0 v 29 c 0,0 0,0 0,0 H 0 c 0,0 0,0 0,0 V 0 c 0,0 0,0 0,0 z"
       style="fill:#f5f5f5;fill-opacity:1;fill-rule:nonzero;stroke:none"
       id="path1187" /></g></g>
                <g id="g1189"><g
     id="g1191"><text
       transform="translate(415.5,236.55)"
       style="font-variant:normal;font-weight:normal;font-size:18px;font-family:'Helvetica Neue';-inkscape-font-specification:Helvetica;writing-mode:lr-tb;fill:#6f6f6f;fill-opacity:1;fill-rule:nonzero;stroke:none"
       id="text1195"><tspan
         x="0 10.008 20.016001 30.024 35.028"
         y="0"
         sodipodi:role="line"
         id="tspan1193">photo</tspan></text></g></g>
                <g id="g1197"><g
     id="g1199"><text
       transform="translate(681.9668,236.55)"
       style="font-variant:normal;font-weight:normal;font-size:18px;font-family:'Helvetica Neue';-inkscape-font-specification:Helvetica;writing-mode:lr-tb;fill:#999999;fill-opacity:1;fill-rule:nonzero;stroke:none"
       id="text1203"><tspan
         x="0 10.008 14.004 24.011999"
         y="0"
         sodipodi:role="line"
         id="tspan1201">blob</tspan></text></g></g>
                <g id="g1205" /></g>
            <g id="g1207"><g
   id="g1209"><g
     id="g1211"
     transform="matrix(1.5,0,0,1.5,396,252)"><path
       d="m 0,0 h 225.33203 c 0,0 0,0 0,0 v 29 c 0,0 0,0 0,0 H 0 c 0,0 0,0 0,0 V 0 c 0,0 0,0 0,0 z"
       style="fill:#f5f5f5;fill-opacity:1;fill-rule:nonzero;stroke:none"
       id="path1213" /></g></g>
                <g id="g1215"><g
     id="g1217"><text
       transform="translate(415.5,280.05)"
       style="font-variant:normal;font-weight:normal;font-size:18px;font-family:'Helvetica Neue';-inkscape-font-specification:Helvetica;writing-mode:lr-tb;fill:#6f6f6f;fill-opacity:1;fill-rule:nonzero;stroke:none"
       id="text1221"><tspan
         x="0 9 19.007999 23.004 33.012001"
         y="0"
         sodipodi:role="line"
         id="tspan1219">color</tspan></text></g></g>
                <g id="g1223"><g
     id="g1225"><text
       transform="translate(660.96094,280.05)"
       style="font-variant:normal;font-weight:normal;font-size:18px;font-family:'Helvetica Neue';-inkscape-font-specification:Helvetica;writing-mode:lr-tb;fill:#999999;fill-opacity:1;fill-rule:nonzero;stroke:none"
       id="text1229"><tspan
         x="0 3.9960001 14.004 19.007999 29.016001 39.023998 49.032001"
         y="0"
         sodipodi:role="line"
         id="tspan1227">integer</tspan></text></g></g>
                <g id="g1231" /></g>
            <g id="g1233"><g
   id="g1235"><g
     id="g1237"
     transform="matrix(1.5,0,0,1.5,396,295.5)"><path
       d="m 0,0 h 225.33203 c 0,0 0,0 0,0 v 29 c 0,0 0,0 0,0 H 0 c 0,0 0,0 0,0 V 0 c 0,0 0,0 0,0 z"
       style="fill:#f5f5f5;fill-opacity:1;fill-rule:nonzero;stroke:none"
       id="path1239" /></g></g>
                <g id="g1241"><g
     id="g1243"><text
       transform="translate(415.5,323.55)"
       style="font-variant:normal;font-weight:normal;font-size:18px;font-family:'Helvetica Neue';-inkscape-font-specification:Helvetica;writing-mode:lr-tb;fill:#6f6f6f;fill-opacity:1;fill-rule:nonzero;stroke:none"
       id="text1247"><tspan
         x="0 10.008 20.016001 24.011999 34.02 39.023998 49.032001"
         y="0"
         sodipodi:role="line"
         id="tspan1245">deleted</tspan></text></g></g>
                <g id="g1249"><g
     id="g1251"><text
       transform="translate(651.93457,323.55)"
       style="font-variant:normal;font-weight:normal;font-size:18px;font-family:'Helvetica Neue';-inkscape-font-specification:Helvetica;writing-mode:lr-tb;fill:#999999;fill-opacity:1;fill-rule:nonzero;stroke:none"
       id="text1255"><tspan
         x="0 10.008 20.016001 30.024 34.02 44.028 54.035999"
         y="0"
         sodipodi:role="line"
         id="tspan1253">boolean</tspan></text></g></g>
                <g id="g1257" /></g>
            <g id="g1259"><g
   id="g1261"><g
     id="g1263"
     transform="matrix(1.5,0,0,1.5,396,339)"><path
       d="m 0,0 h 225.33203 c 0,0 0,0 0,0 v 29 c 0,0 0,0 0,0 H 0 c 0,0 0,0 0,0 V 0 c 0,0 0,0 0,0 z"
       style="fill:#f5f5f5;fill-opacity:1;fill-rule:nonzero;stroke:none"
       id="path1265" /></g></g>
                <g id="g1267"><g
     id="g1269"><text
       transform="translate(415.5,367.05)"
       style="font-variant:normal;font-weight:normal;font-size:18px;font-family:'Helvetica Neue';-inkscape-font-specification:Helvetica;writing-mode:lr-tb;fill:#6f6f6f;fill-opacity:1;fill-rule:nonzero;stroke:none"
       id="text1273"><tspan
         x="0 10.008 20.016001 29.016001 38.015999 50.021999 59.021999 64.026001 68.022003 77.022003"
         y="0"
         sodipodi:role="line"
         id="tspan1271">daysActive</tspan></text></g></g>
                <g id="g1275"><g
     id="g1277"><text
       transform="translate(660.96094,367.05)"
       style="font-variant:normal;font-weight:normal;font-size:18px;font-family:'Helvetica Neue';-inkscape-font-specification:Helvetica;writing-mode:lr-tb;fill:#999999;fill-opacity:1;fill-rule:nonzero;stroke:none"
       id="text1281"><tspan
         x="0 3.9960001 14.004 19.007999 29.016001 39.023998 49.032001"
         y="0"
         sodipodi:role="line"
         id="tspan1279">integer</tspan></text></g></g>
                <g id="g1283" /></g>
            <g id="g1285"><g
   id="g1287"><g
     id="g1289"
     transform="matrix(1.5,0,0,1.5,396,382.5)"><path
       d="m 0,0 h 225.33203 c 0,0 0,0 0,0 v 29 c 0,0 0,0 0,0 H 0 c 0,0 0,0 0,0 V 0 c 0,0 0,0 0,0 z"
       style="fill:#f5f5f5;fill-opacity:1;fill-rule:nonzero;stroke:none"
       id="path1291" /></g></g>
                <g id="g1293"><g
     id="g1295"><text
       transform="translate(415.5,410.55)"
       style="font-variant:normal;font-weight:normal;font-size:18px;font-family:'Helvetica Neue';-inkscape-font-specification:Helvetica;writing-mode:lr-tb;fill:#6f6f6f;fill-opacity:1;fill-rule:nonzero;stroke:none"
       id="text1299"><tspan
         x="0 10.008 20.016001 29.016001 38.015999 43.02 53.028 63.035999 72.036003 77.040001 81.036003 90.036003"
         y="0"
         sodipodi:role="line"
         id="tspan1297">daysInactive</tspan></text></g></g>
                <g id="g1301"><g
     id="g1303"><text
       transform="translate(660.96094,410.55)"
       style="font-variant:normal;font-weight:normal;font-size:18px;font-family:'Helvetica Neue';-inkscape-font-specification:Helvetica;writing-mode:lr-tb;fill:#999999;fill-opacity:1;fill-rule:nonzero;stroke:none"
       id="text1307"><tspan
         x="0 3.9960001 14.004 19.007999 29.016001 39.023998 49.032001"
         y="0"
         sodipodi:role="line"
         id="tspan1305">integer</tspan></text></g></g>
                <g id="g1309" /></g>
            <g id="g1311"><g
   id="g1313"><g
     id="g1315"
     transform="matrix(1.5,0,0,1.5,396,426)"><path
       d="m 0,0 h 225.33203 c 0,0 0,0 0,0 v 29 c 0,0 0,0 0,0 H 0 c 0,0 0,0 0,0 V 0 c 0,0 0,0 0,0 z"
       style="fill:#f5f5f5;fill-opacity:1;fill-rule:nonzero;stroke:none"
       id="path1317" /></g></g>
                <g id="g1319"><g
     id="g1321"><text
       transform="translate(415.5,454.05)"
       style="font-variant:normal;font-weight:normal;font-size:18px;font-family:'Helvetica Neue';-inkscape-font-specification:Helvetica;writing-mode:lr-tb;fill:#6f6f6f;fill-opacity:1;fill-rule:nonzero;stroke:none"
       id="text1325"><tspan
         x="0 5.0040002 15.012 25.02 35.028 44.028 57.023998 66.024002 75.024002 79.019997"
         y="0"
         sodipodi:role="line"
         id="tspan1323">todayCycle</tspan></text></g></g>
                <g id="g1327"><g
     id="g1329"><text
       transform="translate(660.96094,454.05)"
       style="font-variant:normal;font-weight:normal;font-size:18px;font-family:'Helvetica Neue';-inkscape-font-specification:Helvetica;writing-mode:lr-tb;fill:#999999;fill-opacity:1;fill-rule:nonzero;stroke:none"
       id="text1333"><tspan
         x="0 3.9960001 14.004 19.007999 29.016001 39.023998 49.032001"
         y="0"
         sodipodi:role="line"
         id="tspan1331">integer</tspan></text></g></g>
                <g id="g1335" /></g>
            <g id="g1337"><g
   id="g1339"><g
     id="g1341"
     transform="matrix(1.5,0,0,1.5,396,469.5)"><path
       d="m 0,0 h 225.33203 c 0,0 0,0 0,0 v 29 c 0,0 0,0 0,0 H 0 c 0,0 0,0 0,0 V 0 c 0,0 0,0 0,0 z"
       style="fill:#f5f5f5;fill-opacity:1;fill-rule:nonzero;stroke:none"
       id="path1343" /></g></g>
                <g id="g1345"><g
     id="g1347"><text
       transform="translate(415.5,497.55)"
       style="font-variant:normal;font-weight:normal;font-size:18px;font-family:'Helvetica Neue';-inkscape-font-specification:Helvetica;writing-mode:lr-tb;fill:#6f6f6f;fill-opacity:1;fill-rule:nonzero;stroke:none"
       id="text1351"><tspan
         x="0 3.9960001 14.004 23.004 28.007999 41.004002 51.012001 66.005997 70.001999 80.010002 90.017998 100.026 106.02 119.016 129.024 134.028"
         y="0"
         sodipodi:role="line"
         id="tspan1349">lastReminderDate</tspan></text></g></g>
                <g id="g1353"><g
     id="g1355"><text
       transform="translate(660.96094,497.55)"
       style="font-variant:normal;font-weight:normal;font-size:18px;font-family:'Helvetica Neue';-inkscape-font-specification:Helvetica;writing-mode:lr-tb;fill:#999999;fill-opacity:1;fill-rule:nonzero;stroke:none"
       id="text1359"><tspan
         x="0 3.9960001 14.004 19.007999 29.016001 39.023998 49.032001"
         y="0"
         sodipodi:role="line"
         id="tspan1357">integer</tspan></text></g></g>
                <g id="g1361" /></g></g>
        <g id="g1365"><g
     id="g1367"><g
       id="g1369"
       transform="matrix(1.5,0,0,1.5,762,30)"><path
         d="m 0,0 h 217.84375 c 0,0 0,0 0,0 v 32 c 0,0 0,0 0,0 H 0 c 0,0 0,0 0,0 V 0 c 0,0 0,0 0,0 z"
         style="fill:#306996;fill-opacity:1;fill-rule:nonzero;stroke:none"
         id="path1371" /></g></g>
            <g id="g1373"><g
       id="g1375"><text
         transform="translate(781.5,60.825)"
         style="font-variant:normal;font-weight:bold;font-size:19.5px;font-family:'Helvetica Neue';-inkscape-font-specification:Helvetica-Bold;writing-mode:lr-tb;fill:#ffffff;fill-opacity:1;fill-rule:nonzero;stroke:none"
         id="text1379"><tspan
           x="0 7.5854998 18.4275 35.763 41.183998 53.098499 65.013 75.855003"
           y="0"
           sodipodi:role="line"
           id="tspan1377">reminder</tspan></text></g></g>
            <g id="g1381" /></g>
        <g id="g1383"><g
   id="g1385"><g
     id="g1387"
     transform="matrix(1.5,0,0,1.5,762,78)"><path
       d="m 0,0 h 217.84375 c 0,0 0,0 0,0 v 29 c 0,0 0,0 0,0 H 0 c 0,0 0,0 0,0 V 0 c 0,0 0,0 0,0 z"
       style="fill:#f5f5f5;fill-opacity:1;fill-rule:nonzero;stroke:none"
       id="path1389" /></g></g>
            <g id="g1391"><g
     id="g1393"><text
       transform="translate(781.5,106.05)"
       style="font-variant:normal;font-weight:normal;font-size:18px;font-family:'Helvetica Neue';-inkscape-font-specification:Helvetica;writing-mode:lr-tb;fill:#000000;fill-opacity:1;fill-rule:nonzero;stroke:none"
       id="text1397"><tspan
         x="0 5.994 16.002001 30.996 34.992001 45 55.007999 65.015999 71.010002 76.014"
         y="0"
         sodipodi:role="line"
         id="tspan1395">reminderId</tspan></text></g></g>
            <g id="g1399"><g
     id="g1401"><text
       transform="translate(1010.7539,106.05)"
       style="font-variant:normal;font-weight:normal;font-size:18px;font-family:'Helvetica Neue';-inkscape-font-specification:Helvetica;writing-mode:lr-tb;fill:#999999;fill-opacity:1;fill-rule:nonzero;stroke:none"
       id="text1405"><tspan
         x="0 3.9960001 14.004 19.007999 29.016001 39.023998 49.032001"
         y="0"
         sodipodi:role="line"
         id="tspan1403">integer</tspan></text></g></g>
            <g id="g1407" /></g>
        <g id="g1409"><g
   id="g1411"><g
     id="g1413"
     transform="matrix(1.5,0,0,1.5,762,121.5)"><path
       d="m 0,0 h 217.84375 c 0,0 0,0 0,0 v 29 c 0,0 0,0 0,0 H 0 c 0,0 0,0 0,0 V 0 c 0,0 0,0 0,0 z"
       style="fill:#f5f5f5;fill-opacity:1;fill-rule:nonzero;stroke:none"
       id="path1415" /></g></g>
            <g id="g1417"><g
     id="g1419"><text
       transform="translate(781.5,149.55)"
       style="font-variant:normal;font-weight:normal;font-size:18px;font-family:'Helvetica Neue';-inkscape-font-specification:Helvetica;writing-mode:lr-tb;fill:#6f6f6f;fill-opacity:1;fill-rule:nonzero;stroke:none"
       id="text1423"><tspan
         x="0 10.008 14.004 18 21.996 27"
         y="0"
         sodipodi:role="line"
         id="tspan1421">pillId</tspan></text></g></g>
            <g id="g1425"><g
     id="g1427"><text
       transform="translate(1015.7285,149.55)"
       style="font-variant:normal;font-weight:normal;font-size:18px;font-family:'Helvetica Neue';-inkscape-font-specification:Helvetica;writing-mode:lr-tb;fill:#999999;fill-opacity:1;fill-rule:nonzero;stroke:none"
       id="text1431"><tspan
         x="0 3.9960001 14.004 19.007999 29.016001 39.023998 49.032001"
         y="0"
         sodipodi:role="line"
         id="tspan1429">integer</tspan></text></g></g>
            <g id="g1433" /></g>
        <g id="g1435"><g
   id="g1437"><g
     id="g1439"
     transform="matrix(1.5,0,0,1.5,762,165)"><path
       d="m 0,0 h 217.84375 c 0,0 0,0 0,0 v 29 c 0,0 0,0 0,0 H 0 c 0,0 0,0 0,0 V 0 c 0,0 0,0 0,0 z"
       style="fill:#f5f5f5;fill-opacity:1;fill-rule:nonzero;stroke:none"
       id="path1441" /></g></g>
            <g id="g1443"><g
     id="g1445"><text
       transform="translate(781.5,193.05)"
       style="font-variant:normal;font-weight:normal;font-size:18px;font-family:'Helvetica Neue';-inkscape-font-specification:Helvetica;writing-mode:lr-tb;fill:#6f6f6f;fill-opacity:1;fill-rule:nonzero;stroke:none"
       id="text1449"><tspan
         x="0 5.0040002 9 23.993999"
         y="0"
         sodipodi:role="line"
         id="tspan1447">time</tspan></text></g></g>
            <g id="g1451"><g
     id="g1453"><text
       transform="translate(1015.7285,193.05)"
       style="font-variant:normal;font-weight:normal;font-size:18px;font-family:'Helvetica Neue';-inkscape-font-specification:Helvetica;writing-mode:lr-tb;fill:#999999;fill-opacity:1;fill-rule:nonzero;stroke:none"
       id="text1457"><tspan
         x="0 3.9960001 14.004 19.007999 29.016001 39.023998 49.032001"
         y="0"
         sodipodi:role="line"
         id="tspan1455">integer</tspan></text></g></g>
            <g id="g1459" /></g>
        <g id="g1461"><g
   id="g1463"><g
     id="g1465"
     transform="matrix(1.5,0,0,1.5,762,208.5)"><path
       d="m 0,0 h 217.84375 c 0,0 0,0 0,0 v 29 c 0,0 0,0 0,0 H 0 c 0,0 0,0 0,0 V 0 c 0,0 0,0 0,0 z"
       style="fill:#f5f5f5;fill-opacity:1;fill-rule:nonzero;stroke:none"
       id="path1467" /></g></g>
            <g id="g1469"><g
     id="g1471"><text
       transform="translate(781.5,236.55)"
       style="font-variant:normal;font-weight:normal;font-size:18px;font-family:'Helvetica Neue';-inkscape-font-specification:Helvetica;writing-mode:lr-tb;fill:#6f6f6f;fill-opacity:1;fill-rule:nonzero;stroke:none"
       id="text1475"><tspan
         x="0 10.008 25.002001 35.009998 45.018002 55.026001"
         y="0"
         sodipodi:role="line"
         id="tspan1473">amount</tspan></text></g></g>
            <g id="g1477"><g
     id="g1479"><text
       transform="translate(1041.7529,236.55)"
       style="font-variant:normal;font-weight:normal;font-size:18px;font-family:'Helvetica Neue';-inkscape-font-specification:Helvetica;writing-mode:lr-tb;fill:#999999;fill-opacity:1;fill-rule:nonzero;stroke:none"
       id="text1483"><tspan
         x="0 5.0040002 15.012 24.011999"
         y="0"
         sodipodi:role="line"
         id="tspan1481">text</tspan></text></g></g>
            <g id="g1485" /></g></g><g id="g1513" /></g></g></g></g></svg>
